<svg width="605" height="605" viewBox="0 0 605 605" fill="none" xmlns="http://www.w3.org/2000/svg">
<g filter="url(#filter0_ddd_136_2)">
<rect x="56" y="69" width="480" height="480" rx="64" fill="#FFC619"/>
</g>
<mask id="mask0_136_2" style="mask-type:alpha" maskUnits="userSpaceOnUse" x="56" y="69" width="480" height="480">
<rect x="56" y="69" width="480" height="480" rx="64" fill="white"/>
</mask>
<g mask="url(#mask0_136_2)">
<path d="M40.6667 549L394 69H323.333L-30 549H40.6667Z" fill="#EEF5FC"/>
<path d="M202.667 549L556 69H485.333L132 549H202.667Z" fill="#EEF5FC"/>
</g>
<path d="M440.773 263.504C431.78 261.484 405.557 256.178 382.073 257.109C353.184 258.254 327.297 263.688 314.853 267.119C308.131 269.55 297.595 269.122 297.595 269.122H296.404C296.404 269.122 285.868 269.55 279.146 267.119C266.704 263.686 240.817 258.251 211.926 257.109C188.44 256.177 162.217 261.486 153.226 263.504C151.33 263.929 150 265.605 150 267.549V280.901C150 282.597 151.034 284.122 152.607 284.753L153.032 284.924C154.239 285.406 155.081 286.492 155.227 287.783C156.315 297.415 161.549 337.831 173.743 348.645C187.616 360.945 207.192 360.786 218.65 360.945C230.106 361.102 261.828 367.089 285.072 300.613C285.495 299.402 285.832 298.143 286.165 296.905C286.841 294.385 288.908 289.29 294.593 288.859H299.407C305.092 289.287 307.157 294.382 307.835 296.905C308.168 298.143 308.505 299.402 308.928 300.613C332.174 367.088 363.895 361.102 375.35 360.945C386.81 360.788 406.384 360.945 420.257 348.645C432.451 337.836 437.682 297.418 438.773 287.783C438.919 286.492 439.761 285.406 440.968 284.924L441.393 284.753C442.969 284.122 444 282.597 444 280.901V267.549C443.995 265.605 442.664 263.929 440.767 263.504H440.773ZM176.939 335.153C175.808 333.286 174.868 331.278 174.155 329.15C172.55 324.364 170.761 318.423 169.381 312.233L202.114 267.143C205.879 266.793 209.401 266.672 212.347 266.672C217.415 266.672 220.807 267.004 220.911 267.016L220.957 267.018C222.73 267.15 224.429 267.3 226.081 267.462L176.939 335.153ZM336.184 334.789C332.764 328.71 329.889 321.171 327.665 313.189L360.234 268.327C364.065 267.815 368.215 267.355 372.823 267.011L372.871 267.009C372.976 266.997 376.366 266.665 381.433 266.665C382.715 266.665 384.112 266.688 385.585 266.742L336.184 334.789Z" fill="black"/>
<g style="mix-blend-mode:multiply">
<rect x="56" y="69" width="480" height="480" rx="64" fill="url(#paint0_linear_136_2)"/>
</g>
<rect x="57" y="70" width="478" height="478" rx="63" stroke="#BAA35E" stroke-width="2"/>
<rect x="57" y="70" width="478" height="478" rx="63" stroke="#FFC619" stroke-width="2"/>
<circle cx="528" cy="77" r="77" fill="#FD0304"/>
<path d="M536.791 105.876V51.9756H528.09C527.782 54.0289 527.14 55.7486 526.165 57.1346C525.189 58.5206 523.983 59.6499 522.546 60.5226C521.16 61.3439 519.568 61.9343 517.772 62.2936C516.026 62.6016 514.204 62.7299 512.305 62.6786V70.9176H525.857V105.876H536.791Z" fill="white"/>
<defs>
<filter id="filter0_ddd_136_2" x="46" y="59" width="500" height="510" filterUnits="userSpaceOnUse" color-interpolation-filters="sRGB">
<feFlood flood-opacity="0" result="BackgroundImageFix"/>
<feColorMatrix in="SourceAlpha" type="matrix" values="0 0 0 0 0 0 0 0 0 0 0 0 0 0 0 0 0 0 127 0" result="hardAlpha"/>
<feOffset dy="10"/>
<feGaussianBlur stdDeviation="5"/>
<feComposite in2="hardAlpha" operator="out"/>
<feColorMatrix type="matrix" values="0 0 0 0 0.133333 0 0 0 0 0.133333 0 0 0 0 0.133333 0 0 0 0.3 0"/>
<feBlend mode="normal" in2="BackgroundImageFix" result="effect1_dropShadow_136_2"/>
<feColorMatrix in="SourceAlpha" type="matrix" values="0 0 0 0 0 0 0 0 0 0 0 0 0 0 0 0 0 0 127 0" result="hardAlpha"/>
<feOffset dy="4"/>
<feGaussianBlur stdDeviation="2"/>
<feComposite in2="hardAlpha" operator="out"/>
<feColorMatrix type="matrix" values="0 0 0 0 1 0 0 0 0 0.776471 0 0 0 0 0.0980392 0 0 0 0.2 0"/>
<feBlend mode="normal" in2="effect1_dropShadow_136_2" result="effect2_dropShadow_136_2"/>
<feColorMatrix in="SourceAlpha" type="matrix" values="0 0 0 0 0 0 0 0 0 0 0 0 0 0 0 0 0 0 127 0" result="hardAlpha"/>
<feOffset/>
<feGaussianBlur stdDeviation="5"/>
<feComposite in2="hardAlpha" operator="out"/>
<feColorMatrix type="matrix" values="0 0 0 0 1 0 0 0 0 0.727 0 0 0 0 0.475 0 0 0 0.5 0"/>
<feBlend mode="normal" in2="effect2_dropShadow_136_2" result="effect3_dropShadow_136_2"/>
<feBlend mode="normal" in="SourceGraphic" in2="effect3_dropShadow_136_2" result="shape"/>
</filter>
<linearGradient id="paint0_linear_136_2" x1="296" y1="69" x2="296" y2="549" gradientUnits="userSpaceOnUse">
<stop stop-color="#F8F500"/>
<stop offset="1" stop-color="#FFC619"/>
</linearGradient>
</defs>
</svg>
