<svg width="296" height="296" viewBox="0 0 296 296" fill="none" xmlns="http://www.w3.org/2000/svg">
<g filter="url(#filter0_dd_36_541)">
<rect x="28" y="28" width="240" height="240" rx="32" fill="#FEFEFF" shape-rendering="crispEdges"/>
<rect x="27" y="27" width="242" height="242" rx="33" stroke="#113A5F" stroke-opacity="0.2" stroke-width="2" shape-rendering="crispEdges"/>
</g>
<mask id="mask0_36_541" style="mask-type:alpha" maskUnits="userSpaceOnUse" x="28" y="28" width="240" height="240">
<rect x="28" y="28" width="240" height="240" rx="32" fill="white"/>
</mask>
<g mask="url(#mask0_36_541)">
<path d="M20.3333 268L197 28H161.667L-15 268H20.3333Z" fill="#F3F4F8"/>
<path d="M20.3333 268L197 28H161.667L-15 268H20.3333Z" fill="#EEF5FC"/>
<path d="M101.333 268L278 28H242.667L66 268H101.333Z" fill="#F3F4F8"/>
<path d="M101.333 268L278 28H242.667L66 268H101.333Z" fill="#EEF5FC"/>
</g>
<path d="M220.387 125.252C215.89 124.242 202.778 121.589 191.037 122.054C176.592 122.627 163.649 125.344 157.427 127.059C154.065 128.275 148.797 128.061 148.797 128.061H148.202C148.202 128.061 142.934 128.275 139.573 127.059C133.352 125.343 120.409 122.626 105.963 122.054C94.2202 121.589 81.1084 124.243 76.613 125.252C75.6648 125.465 75 126.302 75 127.275V133.951C75 134.799 75.5168 135.561 76.3033 135.876L76.5162 135.962C77.1195 136.203 77.5407 136.746 77.6135 137.392C78.1576 142.207 80.7746 162.416 86.8713 167.822C93.8081 173.972 103.596 173.893 109.325 173.972C115.053 174.051 130.914 177.045 142.536 143.807C142.748 143.201 142.916 142.572 143.082 141.952C143.42 140.692 144.454 138.145 147.296 137.93H149.704C152.546 138.144 153.578 140.691 153.918 141.952C154.084 142.572 154.252 143.201 154.464 143.807C166.087 177.044 181.948 174.051 187.675 173.972C193.405 173.894 203.192 173.972 210.129 167.822C216.225 162.418 218.841 142.209 219.386 137.392C219.459 136.746 219.881 136.203 220.484 135.962L220.697 135.876C221.484 135.561 222 134.799 222 133.951V127.275C221.998 126.302 221.332 125.465 220.384 125.252H220.387ZM88.4697 161.077C87.904 160.143 87.4339 159.139 87.0776 158.075C86.2751 155.682 85.3805 152.711 84.6907 149.616L101.057 127.072C102.94 126.896 104.701 126.836 106.174 126.836C108.707 126.836 110.403 127.002 110.456 127.008L110.478 127.009C111.365 127.075 112.214 127.15 113.041 127.231L88.4697 161.077ZM168.092 160.894C166.382 157.855 164.944 154.085 163.832 150.095L180.117 127.663C182.032 127.407 184.107 127.177 186.412 127.006L186.435 127.004C186.488 126.999 188.183 126.832 190.716 126.832C191.357 126.832 192.056 126.844 192.793 126.871L168.092 160.894Z" fill="#113A5F"/>
<circle cx="264" cy="32" r="32" fill="#113A5F"/>
<path d="M260.613 27.68C260.613 27.168 260.699 26.72 260.869 26.336C261.061 25.952 261.317 25.632 261.637 25.376C261.957 25.12 262.32 24.928 262.725 24.8C263.152 24.6507 263.589 24.576 264.037 24.576C264.741 24.576 265.307 24.6827 265.733 24.896C266.181 25.1093 266.523 25.376 266.757 25.696C267.013 26.016 267.184 26.3573 267.269 26.72C267.355 27.0613 267.397 27.3813 267.397 27.68C267.397 28.64 267.077 29.376 266.437 29.888C265.797 30.3787 264.997 30.624 264.037 30.624C263.12 30.624 262.32 30.3787 261.637 29.888C260.955 29.376 260.613 28.64 260.613 27.68ZM256.485 27.264C256.485 28.3733 256.763 29.344 257.317 30.176C257.872 31.008 258.693 31.5733 259.781 31.872V31.936C258.437 32.256 257.392 32.896 256.645 33.856C255.92 34.816 255.557 36.0107 255.557 37.44C255.557 38.656 255.792 39.7013 256.261 40.576C256.752 41.4507 257.392 42.176 258.181 42.752C258.992 43.328 259.899 43.744 260.901 44C261.925 44.2773 262.981 44.416 264.069 44.416C265.115 44.416 266.139 44.2773 267.141 44C268.144 43.7013 269.04 43.264 269.829 42.688C270.619 42.112 271.248 41.3867 271.717 40.512C272.208 39.6373 272.453 38.6027 272.453 37.408C272.453 36 272.091 34.816 271.365 33.856C270.64 32.8747 269.605 32.2347 268.261 31.936V31.872C269.349 31.5093 270.16 30.912 270.693 30.08C271.248 29.248 271.525 28.2773 271.525 27.168C271.525 26.6133 271.397 25.9947 271.141 25.312C270.885 24.608 270.459 23.9573 269.861 23.36C269.285 22.7413 268.517 22.2187 267.557 21.792C266.597 21.3653 265.424 21.152 264.037 21.152C263.12 21.152 262.213 21.28 261.317 21.536C260.421 21.792 259.611 22.176 258.885 22.688C258.181 23.2 257.605 23.84 257.157 24.608C256.709 25.376 256.485 26.2613 256.485 27.264ZM260.101 37.216C260.101 36.064 260.485 35.1893 261.253 34.592C262.021 33.9733 262.96 33.664 264.069 33.664C264.603 33.664 265.093 33.7493 265.541 33.92C266.011 34.0907 266.416 34.336 266.757 34.656C267.12 34.976 267.397 35.36 267.589 35.808C267.803 36.2347 267.909 36.7147 267.909 37.248C267.909 37.8027 267.813 38.3147 267.621 38.784C267.429 39.2533 267.152 39.6587 266.789 40C266.448 40.32 266.043 40.576 265.573 40.768C265.125 40.9387 264.624 41.024 264.069 41.024C263.536 41.024 263.024 40.9387 262.533 40.768C262.043 40.576 261.616 40.32 261.253 40C260.912 39.6587 260.635 39.2533 260.421 38.784C260.208 38.3147 260.101 37.792 260.101 37.216Z" fill="white"/>
<defs>
<filter id="filter0_dd_36_541" x="6" y="10" width="284" height="284" filterUnits="userSpaceOnUse" color-interpolation-filters="sRGB">
<feFlood flood-opacity="0" result="BackgroundImageFix"/>
<feColorMatrix in="SourceAlpha" type="matrix" values="0 0 0 0 0 0 0 0 0 0 0 0 0 0 0 0 0 0 127 0" result="hardAlpha"/>
<feOffset dy="4"/>
<feGaussianBlur stdDeviation="10"/>
<feComposite in2="hardAlpha" operator="out"/>
<feColorMatrix type="matrix" values="0 0 0 0 0.059375 0 0 0 0 0.225625 0 0 0 0 0.475 0 0 0 0.25 0"/>
<feBlend mode="normal" in2="BackgroundImageFix" result="effect1_dropShadow_36_541"/>
<feColorMatrix in="SourceAlpha" type="matrix" values="0 0 0 0 0 0 0 0 0 0 0 0 0 0 0 0 0 0 127 0" result="hardAlpha"/>
<feOffset dy="4"/>
<feGaussianBlur stdDeviation="2"/>
<feComposite in2="hardAlpha" operator="out"/>
<feColorMatrix type="matrix" values="0 0 0 0 0.218819 0 0 0 0 0.264883 0 0 0 0 0.383333 0 0 0 0.25 0"/>
<feBlend mode="normal" in2="effect1_dropShadow_36_541" result="effect2_dropShadow_36_541"/>
<feBlend mode="normal" in="SourceGraphic" in2="effect2_dropShadow_36_541" result="shape"/>
</filter>
</defs>
</svg>
