<svg width="1924" height="579" viewBox="0 0 1924 579" fill="none" xmlns="http://www.w3.org/2000/svg">
<path d="M0.304688 305.578H99.087C177.528 305.578 210.227 345.915 210.227 411.304C210.227 476.693 169.188 523.566 98.7311 523.566H0.304688V305.578ZM65.6765 360.082V469.063H92.5524C129.955 469.063 145.211 448.716 145.211 411.304C145.211 373.892 129.955 360.082 91.1031 360.082H65.6765Z" fill="#ACACAC"/>
<path d="M305.727 544.625C305.727 529.365 322.432 518.098 351.494 515.199C322.813 513.749 314.804 503.22 314.804 491.215C314.804 480.304 322.432 468.325 343.129 463.976L357.292 461.077C329.678 453.803 314.067 436 314.067 408.405C314.067 371.704 343.129 349.908 392.152 349.908H480.763V400.775H464.795C457.905 400.775 449.539 400.775 439.725 400.037V400.393C454.625 403.674 466.245 409.829 466.245 426.182C466.245 452.328 438.631 465.044 391.796 465.044C380.532 465.044 370.361 463.951 361.64 462.145L360.546 463.951C359.834 465.757 359.453 467.588 359.453 469.394C359.453 474.124 361.64 475.93 369.624 475.93C389.609 475.93 409.569 473.743 426.655 473.743C470.237 473.743 486.205 492.996 486.205 523.515C486.205 556.935 461.515 578.375 394.669 578.019C323.856 578.375 305.676 565.302 305.676 544.6L305.727 544.625ZM439.75 523.541C439.75 518.81 436.496 515.173 428.486 515.173H366.75C356.936 515.173 350.757 518.81 350.757 524.253C350.757 532.239 356.198 535.164 393.245 535.164C432.478 535.164 439.725 531.883 439.725 523.541H439.75ZM368.556 413.822C368.556 421.096 373.641 428.344 391.796 428.344C409.95 428.344 415.036 421.07 415.036 413.822C415.036 404.742 408.857 398.918 391.796 398.918C373.641 398.918 368.556 405.454 368.556 413.822Z" fill="#ACACAC"/>
<path d="M498.566 523.541V349.883H560.302V523.541H498.566ZM560.302 301.204C560.302 284.138 546.47 270.328 529.434 270.328C512.399 270.328 498.566 284.164 498.566 301.204C498.566 318.244 512.399 332.08 529.434 332.08C546.47 332.08 560.302 318.244 560.302 301.204Z" fill="#ACACAC"/>
<path d="M594.068 400.749H578.074V349.883H594.068V309.189H655.803V349.883H695.392V400.749H655.803V453.777C655.803 463.951 659.439 468.681 671.415 468.681C678.306 468.681 687.383 465.782 691.757 464.688L698.291 522.091C684.129 526.44 675.789 528.984 654.71 528.984C611.485 528.984 594.068 500.651 594.068 467.232V400.749Z" fill="#ACACAC"/>
<path d="M815.582 482.137H814.488C807.598 510.47 791.248 527.179 762.186 527.179C733.123 527.179 710.977 510.47 710.977 475.219C710.977 443.987 729.487 423.641 777.442 423.641H815.582V416.011C815.582 402.938 809.047 396.402 795.596 396.402C784.688 396.402 776.348 400.395 773.806 415.298L716.062 407.312C719.698 373.893 739.302 345.561 798.495 345.561C854.433 345.561 877.317 371.706 877.317 415.68V523.568H815.582V482.162V482.137ZM815.582 455.254V450.524H787.968C777.798 450.524 771.263 456.704 771.263 463.978C771.263 472.32 776.348 478.144 791.248 478.144C806.148 478.144 815.582 468.708 815.582 455.254Z" fill="#ACACAC"/>
<path d="M962.294 523.541H900.559V300.848H962.294V523.541Z" fill="#ACACAC"/>
<path d="M1073.08 450.522H1052.38V523.541H987.008V305.578H1087.24C1143.18 305.578 1174.4 329.206 1174.4 379.691C1174.4 411.304 1160.24 431.651 1136.26 441.824L1189.28 522.829V523.541H1113.38L1073.05 450.522H1073.08ZM1052.38 363.693V399.656H1086.53C1103.23 399.656 1109.77 393.831 1109.77 381.852C1109.77 368.78 1101.4 363.693 1085.43 363.693H1052.38Z" fill="#ACACAC"/>
<path d="M1294.24 482.137H1293.14C1286.25 510.47 1269.9 527.179 1240.84 527.179C1211.78 527.179 1189.63 510.47 1189.63 475.219C1189.63 443.987 1208.14 423.641 1256.1 423.641H1294.24V416.011C1294.24 402.938 1287.7 396.402 1274.25 396.402C1263.34 396.402 1255 400.395 1252.46 415.298L1194.72 407.312C1198.35 373.893 1217.96 345.561 1277.15 345.561C1333.09 345.561 1355.97 371.706 1355.97 415.68V523.568H1294.24V482.162V482.137ZM1294.24 455.254V450.524H1266.62C1256.45 450.524 1249.92 456.704 1249.92 463.978C1249.92 472.32 1255 478.144 1269.9 478.144C1284.8 478.144 1294.24 468.708 1294.24 455.254Z" fill="#ACACAC"/>
<path d="M1440.93 523.542H1379.19V349.884H1440.93V399.301H1441.28C1450.36 356.064 1469.61 344.441 1495.77 344.441C1528.47 344.441 1544.79 366.238 1544.79 404.006V523.517H1483.06V422.521C1483.06 408.355 1476.17 399.988 1462.36 399.988C1448.56 399.988 1440.93 408.355 1440.93 422.521V523.517V523.542Z" fill="#ACACAC"/>
<path d="M1653.39 400.394C1637.78 400.394 1626.16 410.212 1626.16 436.001C1626.16 461.79 1637.42 472.701 1653.77 472.701C1670.12 472.701 1676.65 459.985 1679.55 441.088L1738.74 451.999C1734.4 498.491 1708.97 529.01 1654.84 529.01C1600.7 529.01 1562.95 499.94 1562.95 438.188C1562.95 376.436 1597.45 344.467 1653.74 344.467C1710.04 344.467 1732.92 372.087 1739.1 420.767L1679.53 429.134C1676.63 413.874 1670.09 400.445 1653.39 400.445V400.394Z" fill="#ACACAC"/>
<path d="M1819.7 523.541H1757.97V300.848H1819.7V399.3H1820.06C1829.14 356.063 1848.39 344.44 1874.55 344.44C1907.25 344.44 1923.57 366.236 1923.57 404.005V523.516H1861.84V422.52C1861.84 408.354 1854.95 399.986 1841.14 399.986C1827.33 399.986 1819.7 408.354 1819.7 422.52V523.516V523.541Z" fill="#ACACAC"/>
<path d="M229.094 526.262V352.629H290.83V526.288H229.094V526.262ZM290.83 303.925C290.83 286.859 276.997 273.049 259.962 273.049C242.926 273.049 229.094 286.885 229.094 303.925C229.094 320.965 242.926 334.801 259.962 334.801C276.997 334.801 290.83 320.965 290.83 303.925Z" fill="#ACACAC"/>
<path d="M402.493 52H392.806C392.233 49.2135 391.23 46.7656 389.798 44.6562C388.392 42.5469 386.673 40.776 384.642 39.3438C382.636 37.8854 380.41 36.7917 377.962 36.0625C375.514 35.3333 372.962 34.9687 370.306 34.9687C365.462 34.9687 361.074 36.1927 357.142 38.6406C353.235 41.0885 350.123 44.6953 347.806 49.4609C345.514 54.2266 344.368 60.0729 344.368 67C344.368 73.9271 345.514 79.7734 347.806 84.5391C350.123 89.3047 353.235 92.9115 357.142 95.3594C361.074 97.8073 365.462 99.0312 370.306 99.0312C372.962 99.0312 375.514 98.6667 377.962 97.9375C380.41 97.2083 382.636 96.1276 384.642 94.6953C386.673 93.237 388.392 91.4531 389.798 89.3437C391.23 87.2083 392.233 84.7604 392.806 82H402.493C401.764 86.0885 400.436 89.7474 398.509 92.9766C396.582 96.2057 394.186 98.9531 391.321 101.219C388.457 103.458 385.241 105.164 381.673 106.336C378.131 107.508 374.342 108.094 370.306 108.094C363.483 108.094 357.415 106.427 352.103 103.094C346.79 99.7604 342.61 95.0208 339.563 88.875C336.517 82.7292 334.993 75.4375 334.993 67C334.993 58.5625 336.517 51.2708 339.563 45.125C342.61 38.9792 346.79 34.2396 352.103 30.9062C357.415 27.5729 363.483 25.9062 370.306 25.9062C374.342 25.9062 378.131 26.4922 381.673 27.6641C385.241 28.8359 388.457 30.5547 391.321 32.8203C394.186 35.0599 396.582 37.7943 398.509 41.0234C400.436 44.2266 401.764 47.8854 402.493 52ZM484.147 107V27H511.179C517.429 27 522.559 28.0677 526.569 30.2031C530.58 32.3125 533.549 35.2161 535.476 38.9141C537.403 42.612 538.366 46.8177 538.366 51.5312C538.366 56.2448 537.403 60.4245 535.476 64.0703C533.549 67.7161 530.593 70.5807 526.608 72.6641C522.624 74.7214 517.533 75.75 511.335 75.75H489.46V67H511.022C515.293 67 518.731 66.375 521.335 65.125C523.965 63.875 525.866 62.1042 527.038 59.8125C528.236 57.4948 528.835 54.7344 528.835 51.5312C528.835 48.3281 528.236 45.5286 527.038 43.1328C525.84 40.737 523.926 38.888 521.296 37.5859C518.666 36.2578 515.189 35.5937 510.866 35.5937H493.835V107H484.147ZM521.804 71.0625L541.491 107H530.241L510.866 71.0625H521.804ZM620.509 107V27H668.79V35.5937H630.196V62.625H666.29V71.2187H630.196V98.4062H669.415V107H620.509ZM755.532 107H745.376L774.751 27H784.751L814.126 107H803.97L780.063 39.6562H779.438L755.532 107ZM759.282 75.75H800.22V84.3437H759.282V75.75ZM878.866 35.5937V27H938.866V35.5937H913.71V107H904.022V35.5937H878.866ZM1019.82 107V27H1068.1V35.5937H1029.5V62.625H1065.6V71.2187H1029.5V98.4062H1068.72V107H1019.82ZM1176.25 107H1151.56V27H1177.34C1185.1 27 1191.74 28.6016 1197.26 31.8047C1202.78 34.9818 1207.02 39.5521 1209.96 45.5156C1212.9 51.4531 1214.37 58.5625 1214.37 66.8437C1214.37 75.1771 1212.89 82.3516 1209.92 88.3672C1206.95 94.3568 1202.63 98.9661 1196.95 102.195C1191.27 105.398 1184.37 107 1176.25 107ZM1161.25 98.4062H1175.62C1182.24 98.4062 1187.72 97.1302 1192.07 94.5781C1196.42 92.026 1199.66 88.3932 1201.79 83.6797C1203.93 78.9661 1205 73.3542 1205 66.8437C1205 60.3854 1203.94 54.8255 1201.83 50.1641C1199.72 45.4766 1196.57 41.8828 1192.38 39.3828C1188.19 36.8568 1182.97 35.5937 1176.72 35.5937H1161.25V98.4062ZM1393.56 107V27H1421.53C1427.1 27 1431.7 27.9635 1435.32 29.8906C1438.94 31.7917 1441.63 34.3568 1443.4 37.5859C1445.17 40.7891 1446.06 44.3437 1446.06 48.25C1446.06 51.6875 1445.45 54.526 1444.22 56.7656C1443.03 59.0052 1441.44 60.776 1439.46 62.0781C1437.5 63.3802 1435.38 64.3437 1433.09 64.9687V65.75C1435.54 65.9062 1438 66.7656 1440.47 68.3281C1442.95 69.8906 1445.02 72.1302 1446.68 75.0469C1448.35 77.9635 1449.18 81.5312 1449.18 85.75C1449.18 89.7604 1448.27 93.3672 1446.45 96.5703C1444.63 99.7734 1441.75 102.312 1437.82 104.187C1433.89 106.062 1428.77 107 1422.47 107H1393.56ZM1403.25 98.4062H1422.47C1428.79 98.4062 1433.29 97.1823 1435.94 94.7344C1438.62 92.2604 1439.97 89.2656 1439.97 85.75C1439.97 83.0417 1439.28 80.5417 1437.9 78.25C1436.52 75.9323 1434.55 74.0833 1432 72.7031C1429.44 71.2969 1426.42 70.5938 1422.93 70.5938H1403.25V98.4062ZM1403.25 62.1562H1421.22C1424.13 62.1562 1426.76 61.5833 1429.11 60.4375C1431.48 59.2917 1433.35 57.6771 1434.73 55.5937C1436.14 53.5104 1436.84 51.0625 1436.84 48.25C1436.84 44.7344 1435.62 41.7526 1433.17 39.3047C1430.72 36.8307 1426.84 35.5937 1421.53 35.5937H1403.25V62.1562ZM1524.23 27H1535.32L1557.51 64.3437H1558.45L1580.63 27H1591.73L1562.82 74.0313V107H1553.13V74.0313L1524.23 27Z" fill="#ACACAC"/>
</svg>
