<?xml version="1.0" encoding="UTF-8"?>
<svg id="Layer_1" data-name="Layer 1" xmlns="http://www.w3.org/2000/svg" viewBox="0 0 942.05 221.8">
  <defs>
    <style>
      .cls-1 {
        font-family: HelveticaNeue-Bold, 'Helvetica Neue';
        font-size: 48px;
        font-weight: 700;
      }

      .cls-1, .cls-2, .cls-3 {
        fill: #fff;
      }

      .cls-4 {
        letter-spacing: .65em;
      }

      .cls-3 {
        stroke: #fff;
        stroke-miterlimit: 10;
        stroke-width: 3px;
      }

      .cls-5 {
        letter-spacing: .74em;
      }
    </style>
  </defs>
  <g>
    <path class="cls-2" d="M181.65,109.48h38.85c30.85,0,43.71,15.86,43.71,41.57s-16.14,44.14-43.85,44.14h-38.71V109.48Zm25.71,21.43v42.85h10.57c14.71,0,20.71-8,20.71-22.71s-6-20.14-21.28-20.14h-10Z"/>
    <path class="cls-2" d="M301.77,203.47c0-6,6.57-10.43,18-11.57-11.28-.57-14.43-4.71-14.43-9.43,0-4.29,3-9,11.14-10.71l5.57-1.14c-10.86-2.86-17-9.86-17-20.71,0-14.43,11.43-23,30.71-23h34.85v20h-6.28c-2.71,0-6,0-9.86-.29v.14c5.86,1.29,10.43,3.71,10.43,10.14,0,10.28-10.86,15.28-29.28,15.28-4.43,0-8.43-.43-11.86-1.14l-.43,.71c-.28,.71-.43,1.43-.43,2.14,0,1.86,.86,2.57,4,2.57,7.86,0,15.71-.86,22.43-.86,17.14,0,23.42,7.57,23.42,19.57,0,13.14-9.71,21.57-36,21.43-27.85,.14-35-5-35-13.14Zm52.71-8.29c0-1.86-1.28-3.29-4.43-3.29h-24.28c-3.86,0-6.29,1.43-6.29,3.57,0,3.14,2.14,4.29,16.71,4.29,15.43,0,18.28-1.29,18.28-4.57Zm-28-43.14c0,2.86,2,5.71,9.14,5.71s9.14-2.86,9.14-5.71c0-3.57-2.43-5.86-9.14-5.86-7.14,0-9.14,2.57-9.14,5.86Z"/>
    <path class="cls-2" d="M377.61,195.18V126.9h24.28v68.28h-24.28Zm24.28-87.42c0-6.71-5.44-12.14-12.14-12.14s-12.14,5.44-12.14,12.14,5.44,12.14,12.14,12.14,12.14-5.44,12.14-12.14Z"/>
    <path class="cls-2" d="M415.17,146.9h-6.29v-20h6.29v-16h24.28v16h15.57v20h-15.57v20.85c0,4,1.43,5.86,6.14,5.86,2.71,0,6.28-1.14,8-1.57l2.57,22.57c-5.57,1.71-8.85,2.71-17.14,2.71-17,0-23.85-11.14-23.85-24.28v-26.14Z"/>
    <path class="cls-2" d="M502.29,178.9h-.43c-2.71,11.14-9.14,17.71-20.57,17.71s-20.14-6.57-20.14-20.43c0-12.28,7.28-20.28,26.14-20.28h15v-3c0-5.14-2.57-7.71-7.86-7.71-4.29,0-7.57,1.57-8.57,7.43l-22.71-3.14c1.43-13.14,9.14-24.28,32.42-24.28,22,0,31,10.28,31,27.57v42.42h-24.28v-16.28Zm0-10.57v-1.86h-10.86c-4,0-6.57,2.43-6.57,5.29,0,3.28,2,5.57,7.86,5.57s9.57-3.71,9.57-9Z"/>
    <path class="cls-2" d="M559.99,195.18h-24.28V107.62h24.28v87.56Z"/>
    <path class="cls-2" d="M603.56,166.47h-8.14v28.71h-25.71V109.48h39.42c22,0,34.28,9.29,34.28,29.14,0,12.43-5.57,20.43-15,24.43l20.85,31.85v.28h-29.85l-15.86-28.71Zm-8.14-34.14v14.14h13.43c6.57,0,9.14-2.29,9.14-7,0-5.14-3.29-7.14-9.57-7.14h-13Z"/>
    <path class="cls-2" d="M690.54,178.9h-.43c-2.71,11.14-9.14,17.71-20.57,17.71s-20.14-6.57-20.14-20.43c0-12.28,7.28-20.28,26.14-20.28h15v-3c0-5.14-2.57-7.71-7.86-7.71-4.29,0-7.57,1.57-8.57,7.43l-22.71-3.14c1.43-13.14,9.14-24.28,32.42-24.28,22,0,31,10.28,31,27.57v42.42h-24.28v-16.28Zm0-10.57v-1.86h-10.86c-4,0-6.57,2.43-6.57,5.29,0,3.28,2,5.57,7.86,5.57s9.57-3.71,9.57-9Z"/>
    <path class="cls-2" d="M748.23,195.18h-24.28V126.9h24.28v19.43h.14c3.57-17,11.14-21.57,21.43-21.57,12.86,0,19.28,8.57,19.28,23.42v46.99h-24.28v-39.71c0-5.57-2.71-8.86-8.14-8.86s-8.43,3.29-8.43,8.86v39.71Z"/>
    <path class="cls-2" d="M831.79,146.76c-6.14,0-10.71,3.86-10.71,14s4.43,14.43,10.86,14.43,9-5,10.14-12.43l23.28,4.29c-1.71,18.28-11.71,30.28-33,30.28s-36.14-11.43-36.14-35.71,13.57-36.85,35.71-36.85,31.14,10.86,33.57,30l-23.43,3.29c-1.14-6-3.71-11.28-10.28-11.28Z"/>
    <path class="cls-2" d="M897.2,195.18h-24.28V107.62h24.28v38.71h.14c3.57-17,11.14-21.57,21.43-21.57,12.86,0,19.28,8.57,19.28,23.42v46.99h-24.28v-39.71c0-5.57-2.71-8.86-8.14-8.86s-8.43,3.29-8.43,8.86v39.71Z"/>
    <path class="cls-2" d="M271.63,196.25V127.98h24.28v68.28h-24.28Zm24.28-87.42c0-6.71-5.44-12.14-12.14-12.14s-12.14,5.44-12.14,12.14,5.44,12.14,12.14,12.14,12.14-5.44,12.14-12.14Z"/>
  </g>
  <path class="cls-3" d="M65.04,89.2c-34.71,0-62.85,28.14-62.85,62.85s28.14,62.85,62.85,62.85,62.85-28.14,62.85-62.85-28.14-62.85-62.85-62.85Zm-22.21,42.31c.22-2.89,.75-5.76,2.13-8.4,1.17-2.24,3.05-3.22,5.49-3.37,4.33-.27,8.31,.98,12.19,2.69,1.7,.75,3.33,1.65,4.97,2.51,1.17,.61,1.97,.55,2.46-.25,.54-.88,.31-1.72-.92-2.35-2.62-1.34-5.31-2.56-7.97-3.83-.18-.08-.35-.16-.77-.36,2.51-1.25,4.95-1.56,7.43-1.29,5.58,.62,10.44,2.94,14.83,6.4,2.24,1.76,3.12,4.2,3.76,6.75,1.53,6.14,2.94,12.31,4.39,18.47,.22,.91,.03,1.51-.87,2.09-4.5,2.93-9.43,4.23-14.75,4.6-5.03,.35-9.96-.2-14.88-1.06-.7-.12-1.36-.65-1.97-1.09-4.59-3.26-9.62-5.65-14.93-7.47-.86-.3-1.19-.7-1.14-1.64,.21-4.14,.24-8.28,.55-12.41Zm34.91,46.82c-.54,.83-1.37,.72-2.17,.45-.95-.32-1.89-.65-2.82-1.03-4.31-1.77-8.65-3.49-12.92-5.36-2.32-1.02-4.49-2.38-6.79-3.46-6.52-3.07-13.01-6.2-19.62-9.05-4.27-1.84-8.75-3.2-13.11-4.83-2.49-.93-4.89-2.11-7.4-2.95-1.29-.43-2.38-.92-3.08-2.11v-.49c.59-.47,1.1-1.11,1.77-1.37,5.24-2.02,10.6-3.43,16.3-3.29,6.55,.16,12.71,1.79,18.57,4.59,6.19,2.96,11.79,6.82,16.59,11.74,4.79,4.91,9.4,10,14.07,15.02,.55,.59,1.18,1.25,.6,2.13Zm23.7,.21c-4.54,1.31-9.17,1.57-13.84,1.19-.61-.05-1.25-.33-1.8-.63-3.41-1.91-6.16-4.6-8.76-7.47-2.3-2.53-4.6-5.05-6.89-7.57-.21-.23-.4-.47-.75-.89,2.31,0,4.41,.13,6.48-.03,5.38-.41,10.54-1.65,15.14-4.62,3.16-2.04,3.72-3.61,2.85-7.29-1.18-4.98-2.29-9.98-3.46-14.97-.2-.88,.01-1.38,.84-1.83,5.42-2.97,10.48-1.77,15.3,1.37,3.69,2.4,5.75,6.09,7.38,10.03,2.96,7.16,2.94,14.43,.29,21.65-2.2,6-6.82,9.33-12.79,11.05Z"/>
  <text class="cls-1" transform="translate(158.71 37.75)"><tspan class="cls-5" x="0" y="0">CRE</tspan><tspan class="cls-4" x="207.89" y="0">A</tspan><tspan class="cls-5" x="271.87" y="0">TED BY</tspan></text>
</svg>