<svg width="132" height="132" viewBox="0 0 132 132" fill="none" xmlns="http://www.w3.org/2000/svg">
<path fill-rule="evenodd" clip-rule="evenodd" d="M29.4104 1.156C30.9534 1.028 38.8914 1 66.0334 1H87.1934C102.443 1.02649 103.311 1.15217 106.207 1.57169L106.375 1.596C112.643 2.5 117.903 5 122.204 9.108C124.614 11.427 126.274 13.695 127.769 16.732C129.591 20.442 130.486 23.952 130.896 29.172C130.984 30.292 131.024 48.116 131.024 65.952C131.024 83.785 130.987 101.642 130.899 102.762C130.494 107.899 129.599 111.439 127.834 115.079C124.324 122.319 117.874 127.599 110.084 129.609C107.259 130.339 104.704 130.682 100.304 130.889C98.7344 130.969 82.3144 130.989 65.8944 130.989C49.4744 130.989 33.0644 130.939 31.4544 130.869C27.6544 130.689 24.6944 130.309 22.0144 129.619C14.2744 127.619 7.70444 122.259 4.26444 115.119C2.46444 111.389 1.61444 107.979 1.16444 102.559C1.03444 101.019 1.00444 93.089 1.00444 65.969C1.00444 62.6462 1.00312 59.6309 1.00192 56.89C0.999816 52.0938 0.998081 48.1377 1.00444 44.844C1.03001 29.5776 1.15416 28.7211 1.57647 25.8077C1.58371 25.7578 1.59103 25.7072 1.59844 25.656C2.50344 19.394 5.00344 14.126 9.12844 9.844C11.3934 7.496 13.6884 5.821 16.5984 4.376C20.3744 2.496 23.8404 1.619 29.4104 1.156ZM46.212 18.29C51.331 18.057 52.9674 18 65.9965 18C79.0296 18 80.66 18.057 85.779 18.29C90.889 18.524 94.379 19.333 97.439 20.52C100.599 21.745 103.269 23.385 105.939 26.055C108.609 28.723 110.249 31.401 111.479 34.558C112.659 37.61 113.469 41.098 113.709 46.208C113.939 51.328 113.999 52.964 113.999 66C113.999 79.036 113.939 80.668 113.709 85.788C113.469 90.896 112.659 94.385 111.479 97.438C110.249 100.594 108.609 103.272 105.939 105.94C103.272 108.61 100.598 110.254 97.442 111.48C94.388 112.667 90.896 113.476 85.786 113.71C80.666 113.943 79.035 114 65.998 114C52.963 114 51.328 113.943 46.208 113.71C41.099 113.476 37.61 112.667 34.556 111.48C31.401 110.254 28.723 108.61 26.056 105.94C23.387 103.272 21.747 100.594 20.52 97.437C19.334 94.385 18.525 90.897 18.29 85.787C18.058 80.667 18 79.036 18 66C18 52.964 18.06 51.327 18.289 46.207C18.519 41.099 19.329 37.61 20.519 34.557C21.749 31.401 23.389 28.723 26.059 26.055C28.727 23.386 31.405 21.746 34.562 20.52C37.614 19.333 41.102 18.524 46.212 18.29ZM65.9965 18C65.999 18 66.0015 18 66.004 18H65.989C65.9915 18 65.994 18 65.9965 18ZM64.4042 26.6495C63.4336 26.6491 62.5341 26.6487 61.698 26.65V26.638C52.752 26.648 51.036 26.708 46.608 26.908C41.928 27.123 39.387 27.903 37.695 28.563C35.455 29.435 33.855 30.475 32.175 32.155C30.495 33.835 29.453 35.435 28.583 37.675C27.926 39.367 27.144 41.907 26.93 46.587C26.7 51.647 26.654 53.159 26.654 65.977C26.654 78.795 26.7 80.315 26.93 85.375C27.143 90.055 27.926 92.595 28.583 94.285C29.455 96.526 30.495 98.122 32.175 99.802C33.855 101.482 35.455 102.522 37.695 103.392C39.388 104.049 41.928 104.831 46.608 105.047C51.668 105.277 53.187 105.327 66.004 105.327C78.82 105.327 80.34 105.277 85.4 105.047C90.08 104.833 92.622 104.053 94.312 103.393C96.553 102.523 98.148 101.483 99.828 99.803C101.508 98.124 102.55 96.529 103.42 94.289C104.077 92.599 104.859 90.059 105.073 85.379C105.303 80.319 105.353 78.799 105.353 65.989C105.353 53.179 105.303 51.659 105.073 46.599C104.86 41.919 104.077 39.379 103.42 37.689C102.548 35.449 101.508 33.849 99.828 32.169C98.149 30.489 96.552 29.449 94.312 28.579C92.62 27.922 90.08 27.14 85.4 26.926C80.339 26.696 78.82 26.65 66.004 26.65C65.4501 26.65 64.9172 26.6498 64.4042 26.6495ZM85.866 40.378C85.866 37.197 88.446 34.62 91.626 34.62V34.618C94.806 34.618 97.386 37.198 97.386 40.378C97.386 43.558 94.806 46.138 91.626 46.138C88.446 46.138 85.866 43.558 85.866 40.378ZM41.354 66C41.354 52.387 52.391 41.35 66.004 41.35C79.617 41.35 90.65 52.387 90.65 66C90.65 79.613 79.617 90.645 66.004 90.645C52.391 90.645 41.354 79.613 41.354 66ZM82.004 66C82.004 57.163 74.84 50 66.004 50C57.167 50 50.004 57.163 50.004 66C50.004 74.836 57.167 82 66.004 82C74.84 82 82.004 74.836 82.004 66Z" fill="white"/>
</svg>
