<svg width="132" height="132" viewBox="0 0 132 132" fill="none" xmlns="http://www.w3.org/2000/svg">
<path fill-rule="evenodd" clip-rule="evenodd" d="M29.4104 1.156C30.9534 1.028 38.8914 1 66.0334 1H87.1934C102.443 1.02649 103.311 1.15217 106.207 1.57169L106.375 1.596C112.643 2.5 117.903 5 122.204 9.108C124.614 11.427 126.274 13.695 127.769 16.732C129.591 20.442 130.486 23.952 130.896 29.172C130.984 30.292 131.024 48.116 131.024 65.952C131.024 83.785 130.987 101.642 130.899 102.762C130.494 107.899 129.599 111.439 127.834 115.079C124.324 122.319 117.874 127.599 110.084 129.609C107.259 130.339 104.704 130.682 100.304 130.889C98.7344 130.969 82.3144 130.989 65.8944 130.989C49.4744 130.989 33.0644 130.939 31.4544 130.869C27.6544 130.689 24.6944 130.309 22.0144 129.619C14.2744 127.619 7.70444 122.259 4.26444 115.119C2.46444 111.389 1.61444 107.979 1.16444 102.559C1.03444 101.019 1.00444 93.089 1.00444 65.969C1.00444 62.6462 1.00312 59.6309 1.00192 56.89C0.999816 52.0938 0.998081 48.1377 1.00444 44.844C1.03001 29.5776 1.15416 28.7211 1.57647 25.8077C1.58371 25.7578 1.59103 25.7072 1.59844 25.656C2.50344 19.394 5.00344 14.126 9.12844 9.844C11.3934 7.496 13.6884 5.821 16.5984 4.376C20.3744 2.496 23.8404 1.619 29.4104 1.156ZM102 57.5625C102 56.8594 101.156 56.4375 100.594 56.8594C97.3594 59.3906 93.2813 62.4844 78.9375 72.8906C78.57 73.1662 78.1617 73.4851 77.7186 73.8311C74.7701 76.1335 70.2788 79.6406 66 79.6406C61.7725 79.6406 57.545 76.4046 54.5458 74.1087C53.9534 73.6553 53.4089 73.2385 52.9219 72.8906C38.5781 62.4844 34.5 59.3906 31.2656 56.8594C30.7031 56.4375 30 56.8594 30 57.5625V86.25C30 90.0469 32.9531 93 36.75 93H95.25C98.9063 93 102 90.0469 102 86.25V57.5625ZM57.1855 70.4305C59.7111 72.3745 63.2697 75.1138 66 75C68.6017 75.1131 72.1134 72.4055 74.6319 70.4636C75.2443 69.9914 75.798 69.5645 76.2656 69.2344C93.4244 56.8491 96.0248 54.7612 99.5949 51.8947C99.9162 51.6367 100.245 51.3724 100.594 51.0938C101.438 50.5312 102 49.5469 102 48.4219V45.75C102 42.0938 98.9063 39 95.25 39H36.75C32.9531 39 30 42.0938 30 45.75V48.4219C30 49.5469 30.4219 50.5312 31.2656 51.0938C31.614 51.3724 31.9431 51.6367 32.2644 51.8947C35.8345 54.7612 38.4349 56.8491 55.5938 69.2344C56.0504 69.5567 56.5892 69.9714 57.1855 70.4305Z" fill="white"/>
</svg>
