<svg width="12" height="12" viewBox="0 0 12 12" fill="none" xmlns="http://www.w3.org/2000/svg">
<path d="M0 5.08807V4.7653C0 4.59217 0.113466 4.5 0.319921 4.5H11.1927C11.4319 4.5 11.5873 4.65542 11.5873 4.86822V5.40517L11.8432 7.22366L11.7594 9.79351C11.7534 9.97867 11.6559 10.0643 11.4496 9.94489C11.1631 9.77946 10.8683 9.56015 10.554 9.65554C10.1016 9.79269 9.99635 9.68014 9.71004 9.76699C9.53864 9.8195 9.35752 9.88862 9.23569 9.95399C9.06815 10.044 8.90898 9.88091 8.70637 9.83465C8.45576 9.77672 8.12216 9.89459 7.86245 9.81041C7.86245 9.81041 7.52728 9.66757 7.36049 9.5944C7.09086 9.47671 7.08628 9.64627 6.80528 9.48929C6.47626 9.30532 6.38254 9.40364 6.19681 9.26658C5.78617 8.96327 5.34141 9.09868 5.12072 8.91479C4.80841 8.65489 4.59295 8.71576 4.36748 8.64664C4.17415 8.57495 4.12063 8.49205 4.12063 8.28879L4.12053 5.74315C4.12053 5.35722 4.12742 5.37907 3.76407 5.37907H0.290842C0.0707946 5.37907 1.63162e-05 5.30012 1.63162e-05 5.08825L0 5.08807Z" fill="black"/>
</svg>
