<svg width="2281" height="334" viewBox="0 0 2281 334" fill="none" xmlns="http://www.w3.org/2000/svg">
<path d="M2031.2 144V140C2069.6 141.2 2104 141.6 2148 141.6C2192.4 141.6 2228.8 140.8 2279.2 140C2280.4 150.4 2280.8 160.4 2280.8 169.6C2280.8 270.8 2204 283.2 2006.4 283.2C1792 283.2 1738.8 249.6 1738.8 133.6C1738.8 25.6 1806.4 0 2006.4 0C2223.2 0 2280.8 18.8 2280.8 90C2280.8 100.4 2279.6 111.2 2277.6 123.6C2238.8 122.4 2199.2 121.6 2146.4 121.6C2099.2 121.6 2055.6 122.4 2031.2 123.6V119.6C2031.2 95.2 2027.2 88.4 2017.2 88.4C2007.2 88.4 2002 97.6 2002 136.8C2002 163.2 2005.2 180 2016.4 180C2027.6 180 2031.2 164.4 2031.2 144Z" fill="black"/>
<path d="M1447.6 70.8C1435.2 70.8 1429.6 79.2 1428 113.2C1436.4 113.2 1448.4 113.2 1466 113.2C1465.6 81.6 1462.4 70.8 1447.6 70.8ZM1583.6 177.2C1625.6 177.2 1670.8 176.4 1707.2 175.6C1715.2 243.2 1692 283.2 1432.4 283.2C1228.4 283.2 1158 244.8 1158 135.2C1158 27.2 1239.2 0 1444 0C1666 0 1711.6 31.6 1711.6 114C1711.6 130.8 1708.8 148.4 1706.4 158C1652.8 157.2 1577.6 157.2 1514.4 157.2C1479.6 157.2 1448.8 157.2 1428 157.6C1428.8 194.8 1433.2 206.8 1446.4 206.8C1459.2 206.8 1462.8 196 1462.4 175.6C1480 176.4 1532.8 177.2 1583.6 177.2Z" fill="black"/>
<path d="M824.6 143.2V172C828.2 172.4 832.2 172.4 836.2 172.4C854.2 172.4 861.4 162 861.4 132.8C861.4 107.6 855.4 100.4 843.8 100.4C831.4 100.4 824.6 107.6 824.6 143.2ZM829.4 65.6L831 66C860.6 16 909.8 0 975.8 0C1075.8 0 1134.2 34.4 1134.2 140.4C1134.2 248.8 1085.4 283.2 978.6 283.2C882.6 283.2 847 255.6 832.2 226.4H829.8C830.2 240.4 830.6 256.8 830.6 277.6C830.6 297.6 831.4 314.8 831.8 334H563C564.2 254.8 564.6 221.2 564.6 170.4C564.6 72.4 563.8 39.2 563 9.59999H832.2C831.4 17.2 831.8 26 831.8 35.6C831.4 43.2 830.6 52 829.4 65.6Z" fill="black"/>
<path d="M210.8 184.8V189.2C210.8 204 218.4 210.4 238 210.4C252.8 210.4 260.4 206 260.4 196.4C260.4 182.8 240 176.4 174 173.2C29.6 166.4 0 149.6 0 90.4C0 21.6 73.6 0 259.6 0C480.4 0 522.8 22.4 522.8 81.6C522.8 87.6 522.4 94 521.6 100.4C485.2 96.8 423.2 95.2 372.4 95.2C346.4 95.2 323.6 95.2 309.6 96V91.2C309.6 76.8 304 70.4 286 70.4C272 70.4 264 74.8 264 84.4C264 97.2 277.6 101.6 350.8 106C492.8 114.4 530 126.8 530 192.4C530 260 464.8 283.2 265.2 283.2C45.2 283.2 3.6 267.2 3.6 200.8C3.6 194.4 4.4 187.6 4.8 180.4C44 182.8 84.4 185.6 154.8 185.6C176.4 185.6 195.2 185.6 210.8 184.8Z" fill="black"/>
</svg>
