<svg width="2541" height="335" viewBox="0 0 2541 335" fill="none" xmlns="http://www.w3.org/2000/svg">
<path d="M2424.59 122.398C2498.59 122.398 2539.39 145.598 2539.39 199.598C2539.39 253.998 2498.59 277.998 2424.59 277.998C2350.19 277.998 2309.39 253.998 2309.39 199.598C2309.39 145.598 2350.19 122.398 2424.59 122.398Z" fill="white"/>
<path d="M2031.4 144.398V140.398C2069.8 141.598 2104.2 141.998 2148.2 141.998C2192.6 141.998 2229 141.198 2279.4 140.398C2280.6 150.798 2281 160.798 2281 169.998C2281 271.198 2204.2 283.598 2006.6 283.598C1792.2 283.598 1739 249.998 1739 133.998C1739 25.9985 1806.6 0.398438 2006.6 0.398438C2223.4 0.398438 2281 19.1984 2281 90.3984C2281 100.798 2279.8 111.598 2277.8 123.998C2239 122.798 2199.4 121.998 2146.6 121.998C2099.4 121.998 2055.8 122.798 2031.4 123.998V119.998C2031.4 95.5984 2027.4 88.7984 2017.4 88.7984C2007.4 88.7984 2002.2 97.9984 2002.2 137.198C2002.2 163.598 2005.4 180.398 2016.6 180.398C2027.8 180.398 2031.4 164.798 2031.4 144.398Z" fill="white"/>
<path d="M1447.6 71.1984C1435.2 71.1984 1429.6 79.5984 1428 113.598C1436.4 113.598 1448.4 113.598 1466 113.598C1465.6 81.9984 1462.4 71.1984 1447.6 71.1984ZM1583.6 177.598C1625.6 177.598 1670.8 176.798 1707.2 175.998C1715.2 243.598 1692 283.598 1432.4 283.598C1228.4 283.598 1158 245.198 1158 135.598C1158 27.5984 1239.2 0.398438 1444 0.398438C1666 0.398438 1711.6 31.9984 1711.6 114.398C1711.6 131.198 1708.8 148.798 1706.4 158.398C1652.8 157.598 1577.6 157.598 1514.4 157.598C1479.6 157.598 1448.8 157.598 1428 157.998C1428.8 195.198 1433.2 207.198 1446.4 207.198C1459.2 207.198 1462.8 196.398 1462.4 175.998C1480 176.798 1532.8 177.598 1583.6 177.598Z" fill="white"/>
<path d="M824.6 143.598V172.398C828.2 172.798 832.2 172.798 836.2 172.798C854.2 172.798 861.4 162.398 861.4 133.198C861.4 107.998 855.4 100.798 843.8 100.798C831.4 100.798 824.6 107.998 824.6 143.598ZM829.4 65.9984L831 66.3984C860.6 16.3984 909.8 0.398438 975.8 0.398438C1075.8 0.398438 1134.2 34.7984 1134.2 140.798C1134.2 249.198 1085.4 283.598 978.6 283.598C882.6 283.598 847 255.998 832.2 226.798H829.8C830.2 240.798 830.6 257.198 830.6 277.998C830.6 297.998 831.4 315.198 831.8 334.398H563C564.2 255.198 564.6 221.598 564.6 170.798C564.6 72.7984 563.8 39.5984 563 9.99843H832.2C831.4 17.5984 831.8 26.3984 831.8 35.9984C831.4 43.5984 830.6 52.3984 829.4 65.9984Z" fill="white"/>
<path d="M210.8 185.198V189.598C210.8 204.398 218.4 210.798 238 210.798C252.8 210.798 260.4 206.398 260.4 196.798C260.4 183.198 240 176.798 174 173.598C29.6 166.798 0 149.998 0 90.7984C0 21.9984 73.6 0.398438 259.6 0.398438C480.4 0.398438 522.8 22.7984 522.8 81.9984C522.8 87.9984 522.4 94.3984 521.6 100.798C485.2 97.1984 423.2 95.5984 372.4 95.5984C346.4 95.5984 323.6 95.5984 309.6 96.3984V91.5984C309.6 77.1984 304 70.7984 286 70.7984C272 70.7984 264 75.1984 264 84.7984C264 97.5984 277.6 101.998 350.8 106.398C492.8 114.798 530 127.198 530 192.798C530 260.398 464.8 283.598 265.2 283.598C45.2 283.598 3.6 267.598 3.6 201.198C3.6 194.798 4.4 187.998 4.8 180.798C44 183.198 84.4 185.998 154.8 185.998C176.4 185.998 195.2 185.998 210.8 185.198Z" fill="white"/>
</svg>
