<svg width="2281" height="334" viewBox="0 0 2281 334" fill="none" xmlns="http://www.w3.org/2000/svg">
<path d="M2031.2 144V140C2069.6 141.2 2104 141.6 2148 141.6C2192.4 141.6 2228.8 140.8 2279.2 140C2280.4 150.4 2280.8 160.4 2280.8 169.6C2280.8 270.8 2204 283.2 2006.4 283.2C1792 283.2 1738.8 249.6 1738.8 133.6C1738.8 25.6 1806.4 0 2006.4 0C2223.2 0 2280.8 18.8 2280.8 90C2280.8 100.4 2279.6 111.2 2277.6 123.6C2238.8 122.4 2199.2 121.6 2146.4 121.6C2099.2 121.6 2055.6 122.4 2031.2 123.6V119.6C2031.2 95.2 2027.2 88.4 2017.2 88.4C2007.2 88.4 2002 97.6 2002 136.8C2002 163.2 2005.2 180 2016.4 180C2027.6 180 2031.2 164.4 2031.2 144Z" fill="#ABABAB"/>
<path d="M1448.07 70.8C1435.67 70.8 1430.07 79.2 1428.47 113.2C1436.87 113.2 1448.87 113.2 1466.47 113.2C1466.07 81.6 1462.87 70.8 1448.07 70.8ZM1584.07 177.2C1626.07 177.2 1671.27 176.4 1707.67 175.6C1715.67 243.2 1692.47 283.2 1432.87 283.2C1228.87 283.2 1158.47 244.8 1158.47 135.2C1158.47 27.2 1239.67 0 1444.47 0C1666.47 0 1712.07 31.6 1712.07 114C1712.07 130.8 1709.27 148.4 1706.87 158C1653.27 157.2 1578.07 157.2 1514.87 157.2C1480.07 157.2 1449.27 157.2 1428.47 157.6C1429.27 194.8 1433.67 206.8 1446.87 206.8C1459.67 206.8 1463.27 196 1462.87 175.6C1480.47 176.4 1533.27 177.2 1584.07 177.2Z" fill="#ABABAB"/>
<path d="M824.303 143.2V172C827.903 172.4 831.903 172.4 835.903 172.4C853.903 172.4 861.103 162 861.103 132.8C861.103 107.6 855.103 100.4 843.503 100.4C831.103 100.4 824.303 107.6 824.303 143.2ZM829.103 65.6L830.703 66C860.303 16 909.503 0 975.503 0C1075.5 0 1133.9 34.4 1133.9 140.4C1133.9 248.8 1085.1 283.2 978.303 283.2C882.303 283.2 846.703 255.6 831.903 226.4H829.503C829.903 240.4 830.303 256.8 830.303 277.6C830.303 297.6 831.103 314.8 831.503 334H562.703C563.903 254.8 564.303 221.2 564.303 170.4C564.303 72.4 563.503 39.2 562.703 9.59999H831.903C831.103 17.2 831.503 26 831.503 35.6C831.103 43.2 830.303 52 829.103 65.6Z" fill="#ABABAB"/>
<path d="M210.8 184.8V189.2C210.8 204 218.4 210.4 238 210.4C252.8 210.4 260.4 206 260.4 196.4C260.4 182.8 240 176.4 174 173.2C29.6 166.4 0 149.6 0 90.4C0 21.6 73.6 0 259.6 0C480.4 0 522.8 22.4 522.8 81.6C522.8 87.6 522.4 94 521.6 100.4C485.2 96.8 423.2 95.2 372.4 95.2C346.4 95.2 323.6 95.2 309.6 96V91.2C309.6 76.8 304 70.4 286 70.4C272 70.4 264 74.8 264 84.4C264 97.2 277.6 101.6 350.8 106C492.8 114.4 530 126.8 530 192.4C530 260 464.8 283.2 265.2 283.2C45.2 283.2 3.6 267.2 3.6 200.8C3.6 194.4 4.4 187.6 4.8 180.4C44 182.8 84.4 185.6 154.8 185.6C176.4 185.6 195.2 185.6 210.8 184.8Z" fill="#ABABAB"/>
</svg>
