<svg width="2281" height="334" viewBox="0 0 2281 334" fill="none" xmlns="http://www.w3.org/2000/svg">
<path d="M2031.4 144V140C2069.8 141.2 2104.2 141.6 2148.2 141.6C2192.6 141.6 2229 140.8 2279.4 140C2280.6 150.4 2281 160.4 2281 169.6C2281 270.8 2204.2 283.2 2006.6 283.2C1792.2 283.2 1739 249.6 1739 133.6C1739 25.6 1806.6 0 2006.6 0C2223.4 0 2281 18.8 2281 90C2281 100.4 2279.8 111.2 2277.8 123.6C2239 122.4 2199.4 121.6 2146.6 121.6C2099.4 121.6 2055.8 122.4 2031.4 123.6V119.6C2031.4 95.2 2027.4 88.4 2017.4 88.4C2007.4 88.4 2002.2 97.6 2002.2 136.8C2002.2 163.2 2005.4 180 2016.6 180C2027.8 180 2031.4 164.4 2031.4 144Z" fill="white"/>
<path d="M1448.27 70.8C1435.87 70.8 1430.27 79.2 1428.67 113.2C1437.07 113.2 1449.07 113.2 1466.67 113.2C1466.27 81.6 1463.07 70.8 1448.27 70.8ZM1584.27 177.2C1626.27 177.2 1671.47 176.4 1707.87 175.6C1715.87 243.2 1692.67 283.2 1433.07 283.2C1229.07 283.2 1158.67 244.8 1158.67 135.2C1158.67 27.2 1239.87 0 1444.67 0C1666.67 0 1712.27 31.6 1712.27 114C1712.27 130.8 1709.47 148.4 1707.07 158C1653.47 157.2 1578.27 157.2 1515.07 157.2C1480.27 157.2 1449.47 157.2 1428.67 157.6C1429.47 194.8 1433.87 206.8 1447.07 206.8C1459.87 206.8 1463.47 196 1463.07 175.6C1480.67 176.4 1533.47 177.2 1584.27 177.2Z" fill="white"/>
<path d="M824.506 143.2V172C828.106 172.4 832.106 172.4 836.106 172.4C854.106 172.4 861.306 162 861.306 132.8C861.306 107.6 855.306 100.4 843.706 100.4C831.306 100.4 824.506 107.6 824.506 143.2ZM829.306 65.6L830.906 66C860.506 16 909.706 0 975.706 0C1075.71 0 1134.11 34.4 1134.11 140.4C1134.11 248.8 1085.31 283.2 978.506 283.2C882.506 283.2 846.906 255.6 832.106 226.4H829.706C830.106 240.4 830.506 256.8 830.506 277.6C830.506 297.6 831.306 314.8 831.706 334H562.906C564.106 254.8 564.506 221.2 564.506 170.4C564.506 72.4 563.706 39.2 562.906 9.59999H832.106C831.306 17.2 831.706 26 831.706 35.6C831.306 43.2 830.506 52 829.306 65.6Z" fill="white"/>
<path d="M211.003 184.8V189.2C211.003 204 218.603 210.4 238.203 210.4C253.003 210.4 260.603 206 260.603 196.4C260.603 182.8 240.203 176.4 174.203 173.2C29.8031 166.4 0.203125 149.6 0.203125 90.4C0.203125 21.6 73.8031 0 259.803 0C480.603 0 523.003 22.4 523.003 81.6C523.003 87.6 522.603 94 521.803 100.4C485.403 96.8 423.403 95.2 372.603 95.2C346.603 95.2 323.803 95.2 309.803 96V91.2C309.803 76.8 304.203 70.4 286.203 70.4C272.203 70.4 264.203 74.8 264.203 84.4C264.203 97.2 277.803 101.6 351.003 106C493.003 114.4 530.203 126.8 530.203 192.4C530.203 260 465.003 283.2 265.403 283.2C45.4031 283.2 3.80313 267.2 3.80313 200.8C3.80313 194.4 4.60312 187.6 5.00312 180.4C44.2031 182.8 84.6031 185.6 155.003 185.6C176.603 185.6 195.403 185.6 211.003 184.8Z" fill="white"/>
</svg>
